<?xml version="1.0" encoding="UTF-8" standalone="no"?>
<!DOCTYPE svg PUBLIC "-//W3C//DTD SVG 1.1//EN"
 "http://www.w3.org/Graphics/SVG/1.1/DTD/svg11.dtd">
<!-- Generated by graphviz version 8.0.1 (20230327.1645)
 -->
<!-- Title: dependency&#45;cruiser output Pages: 1 -->
<svg width="836pt" height="491pt"
 viewBox="0.00 0.00 836.00 490.79" xmlns="http://www.w3.org/2000/svg" xmlns:xlink="http://www.w3.org/1999/xlink">
<g id="graph0" class="graph" transform="scale(1 1) rotate(0) translate(4 486.79)">
<title>dependency&#45;cruiser output</title>
<polygon fill="white" stroke="none" points="-4,4 -4,-486.79 832,-486.79 832,4 -4,4"/>
<g id="clust2" class="cluster">
<title>cluster_src</title>
<path fill="#ffffff" stroke="black" stroke-width="2" d="M20,-126.79C20,-126.79 754,-126.79 754,-126.79 760,-126.79 766,-132.79 766,-138.79 766,-138.79 766,-462.79 766,-462.79 766,-468.79 760,-474.79 754,-474.79 754,-474.79 20,-474.79 20,-474.79 14,-474.79 8,-468.79 8,-462.79 8,-462.79 8,-138.79 8,-138.79 8,-132.79 14,-126.79 20,-126.79"/>
<text text-anchor="middle" x="387" y="-463.59" font-family="Helvetica,sans-Serif" font-weight="bold" font-size="9.00">src</text>
</g>
<g id="clust3" class="cluster">
<title>cluster_src/app</title>
<path fill="#ffffff" stroke="black" stroke-width="2" d="M90,-134.79C90,-134.79 746,-134.79 746,-134.79 752,-134.79 758,-140.79 758,-146.79 758,-146.79 758,-436.79 758,-436.79 758,-442.79 752,-448.79 746,-448.79 746,-448.79 90,-448.79 90,-448.79 84,-448.79 78,-442.79 78,-436.79 78,-436.79 78,-146.79 78,-146.79 78,-140.79 84,-134.79 90,-134.79"/>
<text text-anchor="middle" x="418" y="-437.59" font-family="Helvetica,sans-Serif" font-weight="bold" font-size="9.00">app</text>
</g>
<g id="clust5" class="cluster">
<title>cluster_src/app/manager&#45;workboard</title>
<path fill="#ffffff" stroke="black" stroke-width="2" d="M392,-168.79C392,-168.79 738,-168.79 738,-168.79 744,-168.79 750,-174.79 750,-180.79 750,-180.79 750,-238.79 750,-238.79 750,-244.79 744,-250.79 738,-250.79 738,-250.79 392,-250.79 392,-250.79 386,-250.79 380,-244.79 380,-238.79 380,-238.79 380,-180.79 380,-180.79 380,-174.79 386,-168.79 392,-168.79"/>
<text text-anchor="middle" x="565" y="-239.59" font-family="Helvetica,sans-Serif" font-weight="bold" font-size="9.00">manager&#45;workboard</text>
</g>
<g id="clust4" class="cluster">
<title>cluster_src/app/login</title>
<path fill="#ffffff" stroke="black" stroke-width="2" d="M249.5,-370.79C249.5,-370.79 522.5,-370.79 522.5,-370.79 528.5,-370.79 534.5,-376.79 534.5,-382.79 534.5,-382.79 534.5,-410.79 534.5,-410.79 534.5,-416.79 528.5,-422.79 522.5,-422.79 522.5,-422.79 249.5,-422.79 249.5,-422.79 243.5,-422.79 237.5,-416.79 237.5,-410.79 237.5,-410.79 237.5,-382.79 237.5,-382.79 237.5,-376.79 243.5,-370.79 249.5,-370.79"/>
<text text-anchor="middle" x="386" y="-411.59" font-family="Helvetica,sans-Serif" font-weight="bold" font-size="9.00">login</text>
</g>
<g id="clust7" class="cluster">
<title>cluster_src/app/top&#45;bar</title>
<path fill="#ffffff" stroke="black" stroke-width="2" d="M98,-224.79C98,-224.79 352.5,-224.79 352.5,-224.79 358.5,-224.79 364.5,-230.79 364.5,-236.79 364.5,-236.79 364.5,-264.79 364.5,-264.79 364.5,-270.79 358.5,-276.79 352.5,-276.79 352.5,-276.79 98,-276.79 98,-276.79 92,-276.79 86,-270.79 86,-264.79 86,-264.79 86,-236.79 86,-236.79 86,-230.79 92,-224.79 98,-224.79"/>
<text text-anchor="middle" x="225.25" y="-265.59" font-family="Helvetica,sans-Serif" font-weight="bold" font-size="9.00">top&#45;bar</text>
</g>
<g id="clust6" class="cluster">
<title>cluster_src/app/slick&#45;grid</title>
<path fill="#ffffff" stroke="black" stroke-width="2" d="M241,-310.79C241,-310.79 531.5,-310.79 531.5,-310.79 537.5,-310.79 543.5,-316.79 543.5,-322.79 543.5,-322.79 543.5,-350.79 543.5,-350.79 543.5,-356.79 537.5,-362.79 531.5,-362.79 531.5,-362.79 241,-362.79 241,-362.79 235,-362.79 229,-356.79 229,-350.79 229,-350.79 229,-322.79 229,-322.79 229,-316.79 235,-310.79 241,-310.79"/>
<text text-anchor="middle" x="386.25" y="-351.59" font-family="Helvetica,sans-Serif" font-weight="bold" font-size="9.00">slick&#45;grid</text>
</g>
<g id="clust1" class="cluster">
<title>cluster_services</title>
<path fill="#ffffff" stroke="black" stroke-width="2" d="M639.5,-40.79C639.5,-40.79 685.5,-40.79 685.5,-40.79 691.5,-40.79 697.5,-46.79 697.5,-52.79 697.5,-52.79 697.5,-80.79 697.5,-80.79 697.5,-86.79 691.5,-92.79 685.5,-92.79 685.5,-92.79 639.5,-92.79 639.5,-92.79 633.5,-92.79 627.5,-86.79 627.5,-80.79 627.5,-80.79 627.5,-52.79 627.5,-52.79 627.5,-46.79 633.5,-40.79 639.5,-40.79"/>
<text text-anchor="middle" x="662.5" y="-81.59" font-family="Helvetica,sans-Serif" font-weight="bold" font-size="9.00">services</text>
</g>
<!-- classes -->
<g id="node1" class="node">
<title>classes</title>
<g id="a_node1"><a xlink:title="classes">
<path fill="#ffffcc" stroke="red" d="M822,-129.79C822,-129.79 780,-129.79 780,-129.79 777,-129.79 774,-126.79 774,-123.79 774,-123.79 774,-117.79 774,-117.79 774,-114.79 777,-111.79 780,-111.79 780,-111.79 822,-111.79 822,-111.79 825,-111.79 828,-114.79 828,-117.79 828,-117.79 828,-123.79 828,-123.79 828,-126.79 825,-129.79 822,-129.79"/>
<text text-anchor="middle" x="801" y="-118.59" font-family="Helvetica,sans-Serif" font-size="9.00" fill="red">classes</text>
</a>
</g>
</g>
<!-- classes.ts -->
<g id="node2" class="node">
<title>classes.ts</title>
<g id="a_node2"><a xlink:href="classes.ts" xlink:title="classes.ts">
<path fill="#ddfeff" stroke="black" d="M686,-118.79C686,-118.79 639,-118.79 639,-118.79 636,-118.79 633,-115.79 633,-112.79 633,-112.79 633,-106.79 633,-106.79 633,-103.79 636,-100.79 639,-100.79 639,-100.79 686,-100.79 686,-100.79 689,-100.79 692,-103.79 692,-106.79 692,-106.79 692,-112.79 692,-112.79 692,-115.79 689,-118.79 686,-118.79"/>
<text text-anchor="middle" x="662.5" y="-107.59" font-family="Helvetica,sans-Serif" font-size="9.00">classes.ts</text>
</a>
</g>
</g>
<!-- services/services -->
<g id="node3" class="node">
<title>services/services</title>
<g id="a_node3"><a xlink:title="services">
<path fill="#ffffcc" stroke="red" d="M683.5,-66.79C683.5,-66.79 641.5,-66.79 641.5,-66.79 638.5,-66.79 635.5,-63.79 635.5,-60.79 635.5,-60.79 635.5,-54.79 635.5,-54.79 635.5,-51.79 638.5,-48.79 641.5,-48.79 641.5,-48.79 683.5,-48.79 683.5,-48.79 686.5,-48.79 689.5,-51.79 689.5,-54.79 689.5,-54.79 689.5,-60.79 689.5,-60.79 689.5,-63.79 686.5,-66.79 683.5,-66.79"/>
<text text-anchor="middle" x="662.5" y="-55.59" font-family="Helvetica,sans-Serif" font-size="9.00" fill="red">services</text>
</a>
</g>
</g>
<!-- src/app/app&#45;routing.module.ts -->
<g id="node4" class="node">
<title>src/app/app&#45;routing.module.ts</title>
<g id="a_node4"><a xlink:href="src/app/app-routing.module.ts" xlink:title="app&#45;routing.module.ts">
<path fill="#ddfeff" stroke="black" d="M352,-188.79C352,-188.79 257,-188.79 257,-188.79 254,-188.79 251,-185.79 251,-182.79 251,-182.79 251,-176.79 251,-176.79 251,-173.79 254,-170.79 257,-170.79 257,-170.79 352,-170.79 352,-170.79 355,-170.79 358,-173.79 358,-176.79 358,-176.79 358,-182.79 358,-182.79 358,-185.79 355,-188.79 352,-188.79"/>
<text text-anchor="start" x="259" y="-177.59" font-family="Helvetica,sans-Serif" font-size="9.00">app&#45;routing.module.ts</text>
</a>
</g>
</g>
<!-- src/app/login.guard.ts -->
<g id="node5" class="node">
<title>src/app/login.guard.ts</title>
<g id="a_node5"><a xlink:href="src/app/login.guard.ts" xlink:title="login.guard.ts">
<path fill="#ddfeff" stroke="black" d="M509.5,-160.79C509.5,-160.79 448.5,-160.79 448.5,-160.79 445.5,-160.79 442.5,-157.79 442.5,-154.79 442.5,-154.79 442.5,-148.79 442.5,-148.79 442.5,-145.79 445.5,-142.79 448.5,-142.79 448.5,-142.79 509.5,-142.79 509.5,-142.79 512.5,-142.79 515.5,-145.79 515.5,-148.79 515.5,-148.79 515.5,-154.79 515.5,-154.79 515.5,-157.79 512.5,-160.79 509.5,-160.79"/>
<text text-anchor="start" x="450.5" y="-149.59" font-family="Helvetica,sans-Serif" font-size="9.00">login.guard.ts</text>
</a>
</g>
</g>
<!-- src/app/app&#45;routing.module.ts&#45;&gt;src/app/login.guard.ts -->
<g id="edge1" class="edge">
<title>src/app/app&#45;routing.module.ts&#45;&gt;src/app/login.guard.ts</title>
<path fill="none" stroke="#000000" stroke-width="2" stroke-opacity="0.200000" d="M354.34,-170.3C362.88,-168.73 371.69,-167.17 380,-165.79 397.47,-162.91 416.76,-160.07 433.56,-157.72"/>
<polygon fill="#000000" fill-opacity="0.200000" stroke="#000000" stroke-width="2" stroke-opacity="0.200000" points="434.45,-159.44 440.1,-156.54 433.87,-155.28 434.45,-159.44"/>
</g>
<!-- src/app/login/login.component.ts -->
<g id="node6" class="node">
<title>src/app/login/login.component.ts</title>
<g id="a_node6"><a xlink:href="src/app/login/login.component.ts" xlink:title="login.component.ts">
<path fill="#ddfeff" stroke="black" d="M520.5,-396.79C520.5,-396.79 437.5,-396.79 437.5,-396.79 434.5,-396.79 431.5,-393.79 431.5,-390.79 431.5,-390.79 431.5,-384.79 431.5,-384.79 431.5,-381.79 434.5,-378.79 437.5,-378.79 437.5,-378.79 520.5,-378.79 520.5,-378.79 523.5,-378.79 526.5,-381.79 526.5,-384.79 526.5,-384.79 526.5,-390.79 526.5,-390.79 526.5,-393.79 523.5,-396.79 520.5,-396.79"/>
<text text-anchor="start" x="439.5" y="-385.59" font-family="Helvetica,sans-Serif" font-size="9.00">login.component.ts</text>
</a>
</g>
</g>
<!-- src/app/app&#45;routing.module.ts&#45;&gt;src/app/login/login.component.ts -->
<g id="edge2" class="edge">
<title>src/app/app&#45;routing.module.ts&#45;&gt;src/app/login/login.component.ts</title>
<path fill="none" stroke="#000000" stroke-width="2" stroke-opacity="0.200000" d="M341.93,-189.22C353.44,-194.06 364.97,-201.23 372,-211.79 390.98,-240.32 357.9,-339.61 380,-365.79 390.49,-378.22 406.33,-384.51 422.24,-387.49"/>
<polygon fill="#000000" fill-opacity="0.200000" stroke="#000000" stroke-width="2" stroke-opacity="0.200000" points="422.81,-390 429.06,-388.82 423.44,-385.85 422.81,-390"/>
</g>
<!-- src/app/manager&#45;workboard/manager&#45;workboard.component.ts -->
<g id="node7" class="node">
<title>src/app/manager&#45;workboard/manager&#45;workboard.component.ts</title>
<g id="a_node7"><a xlink:href="src/app/manager-workboard/manager-workboard.component.ts" xlink:title="manager&#45;workboard.component.ts">
<path fill="#ddfeff" stroke="black" d="M736,-224.79C736,-224.79 589,-224.79 589,-224.79 586,-224.79 583,-221.79 583,-218.79 583,-218.79 583,-212.79 583,-212.79 583,-209.79 586,-206.79 589,-206.79 589,-206.79 736,-206.79 736,-206.79 739,-206.79 742,-209.79 742,-212.79 742,-212.79 742,-218.79 742,-218.79 742,-221.79 739,-224.79 736,-224.79"/>
<text text-anchor="start" x="591" y="-213.59" font-family="Helvetica,sans-Serif" font-size="9.00">manager&#45;workboard.component.ts</text>
</a>
</g>
</g>
<!-- src/app/app&#45;routing.module.ts&#45;&gt;src/app/manager&#45;workboard/manager&#45;workboard.component.ts -->
<g id="edge3" class="edge">
<title>src/app/app&#45;routing.module.ts&#45;&gt;src/app/manager&#45;workboard/manager&#45;workboard.component.ts</title>
<path fill="none" stroke="#000000" stroke-width="2" stroke-opacity="0.200000" d="M358.49,-187.92C363.55,-190.43 368.2,-193.65 372,-197.79 385.45,-212.43 364.74,-229.06 380,-241.79 454.37,-303.86 581.39,-254.77 635.67,-229.03"/>
<polygon fill="#000000" fill-opacity="0.200000" stroke="#000000" stroke-width="2" stroke-opacity="0.200000" points="636.95,-230.77 641.44,-226.27 635.12,-226.99 636.95,-230.77"/>
</g>
<!-- src/app/slick&#45;grid/slick&#45;grid.component.ts -->
<g id="node8" class="node">
<title>src/app/slick&#45;grid/slick&#45;grid.component.ts</title>
<g id="a_node8"><a xlink:href="src/app/slick-grid/slick-grid.component.ts" xlink:title="slick&#45;grid.component.ts">
<path fill="#ddfeff" stroke="black" d="M529.5,-336.79C529.5,-336.79 428.5,-336.79 428.5,-336.79 425.5,-336.79 422.5,-333.79 422.5,-330.79 422.5,-330.79 422.5,-324.79 422.5,-324.79 422.5,-321.79 425.5,-318.79 428.5,-318.79 428.5,-318.79 529.5,-318.79 529.5,-318.79 532.5,-318.79 535.5,-321.79 535.5,-324.79 535.5,-324.79 535.5,-330.79 535.5,-330.79 535.5,-333.79 532.5,-336.79 529.5,-336.79"/>
<text text-anchor="start" x="430.5" y="-325.59" font-family="Helvetica,sans-Serif" font-size="9.00">slick&#45;grid.component.ts</text>
</a>
</g>
</g>
<!-- src/app/app&#45;routing.module.ts&#45;&gt;src/app/slick&#45;grid/slick&#45;grid.component.ts -->
<g id="edge4" class="edge">
<title>src/app/app&#45;routing.module.ts&#45;&gt;src/app/slick&#45;grid/slick&#45;grid.component.ts</title>
<path fill="none" stroke="#000000" stroke-width="2" stroke-opacity="0.200000" d="M358.33,-187.18C363.55,-189.81 368.28,-193.26 372,-197.79 388.54,-217.94 362.17,-295.79 380,-314.79 388.78,-324.15 400.79,-329.15 413.39,-331.54"/>
<polygon fill="#000000" fill-opacity="0.200000" stroke="#000000" stroke-width="2" stroke-opacity="0.200000" points="413.94,-334.03 420.18,-332.8 414.53,-329.87 413.94,-334.03"/>
</g>
<!-- src/app/login.guard.ts&#45;&gt;classes.ts -->
<g id="edge13" class="edge">
<title>src/app/login.guard.ts&#45;&gt;classes.ts</title>
<path fill="none" stroke="#000000" stroke-width="2" stroke-opacity="0.200000" d="M515.86,-143.5C547.12,-136.26 592.29,-125.81 624.02,-118.47"/>
<polygon fill="#000000" fill-opacity="0.200000" stroke="#000000" stroke-width="2" stroke-opacity="0.200000" points="625.21,-119.88 630.59,-116.49 624.27,-115.79 625.21,-119.88"/>
</g>
<!-- src/app/login/login.component.ts&#45;&gt;services/services -->
<g id="edge16" class="edge">
<title>src/app/login/login.component.ts&#45;&gt;services/services</title>
<path fill="none" stroke="#000000" stroke-width="2" stroke-opacity="0.200000" d="M526.72,-387.31C542.83,-384.64 559.46,-378.58 570,-365.79 589.18,-342.53 566.25,-119.86 583,-94.79 593.05,-79.75 610.94,-70.68 627.11,-65.29"/>
<polygon fill="#000000" fill-opacity="0.200000" stroke="#000000" stroke-width="2" stroke-opacity="0.200000" points="628.22,-66.54 633.35,-62.79 627,-62.52 628.22,-66.54"/>
</g>
<!-- src/app/login/login.component.ts&#45;&gt;src/app/manager&#45;workboard/manager&#45;workboard.component.ts -->
<g id="edge15" class="edge">
<title>src/app/login/login.component.ts&#45;&gt;src/app/manager&#45;workboard/manager&#45;workboard.component.ts</title>
<path fill="none" stroke="#000000" stroke-width="2" stroke-opacity="0.200000" d="M526.92,-383.44C541.76,-380.28 557.54,-374.91 570,-365.79 617.06,-331.38 644.86,-264.74 655.92,-233.18"/>
<polygon fill="#000000" fill-opacity="0.200000" stroke="#000000" stroke-width="2" stroke-opacity="0.200000" points="658.78,-233.28 658.71,-226.92 654.8,-231.93 658.78,-233.28"/>
</g>
<!-- src/app/manager&#45;workboard/manager&#45;workboard.component.ts&#45;&gt;classes -->
<g id="edge18" class="edge">
<title>src/app/manager&#45;workboard/manager&#45;workboard.component.ts&#45;&gt;classes</title>
<path fill="none" stroke="#000000" stroke-width="2" stroke-opacity="0.200000" d="M677.09,-206.34C701,-189.69 750.76,-155.06 779.09,-135.35"/>
<polygon fill="#000000" fill-opacity="0.200000" stroke="#000000" stroke-width="2" stroke-opacity="0.200000" points="780.74,-136.36 784.47,-131.21 778.34,-132.92 780.74,-136.36"/>
</g>
<!-- src/app/app.component.spec.ts -->
<g id="node9" class="node">
<title>src/app/app.component.spec.ts</title>
<g id="a_node9"><a xlink:href="src/app/app.component.spec.ts" xlink:title="app.component.spec.ts">
<path fill="#ddfeff" stroke="black" d="M208,-302.79C208,-302.79 107,-302.79 107,-302.79 104,-302.79 101,-299.79 101,-296.79 101,-296.79 101,-290.79 101,-290.79 101,-287.79 104,-284.79 107,-284.79 107,-284.79 208,-284.79 208,-284.79 211,-284.79 214,-287.79 214,-290.79 214,-290.79 214,-296.79 214,-296.79 214,-299.79 211,-302.79 208,-302.79"/>
<text text-anchor="start" x="109" y="-291.59" font-family="Helvetica,sans-Serif" font-size="9.00">app.component.spec.ts</text>
</a>
</g>
</g>
<!-- src/app/app.component.ts -->
<g id="node10" class="node">
<title>src/app/app.component.ts</title>
<g id="a_node10"><a xlink:href="src/app/app.component.ts" xlink:title="app.component.ts">
<path fill="#ddfeff" stroke="black" d="M344,-302.79C344,-302.79 265,-302.79 265,-302.79 262,-302.79 259,-299.79 259,-296.79 259,-296.79 259,-290.79 259,-290.79 259,-287.79 262,-284.79 265,-284.79 265,-284.79 344,-284.79 344,-284.79 347,-284.79 350,-287.79 350,-290.79 350,-290.79 350,-296.79 350,-296.79 350,-299.79 347,-302.79 344,-302.79"/>
<text text-anchor="start" x="267" y="-291.59" font-family="Helvetica,sans-Serif" font-size="9.00">app.component.ts</text>
</a>
</g>
</g>
<!-- src/app/app.component.spec.ts&#45;&gt;src/app/app.component.ts -->
<g id="edge5" class="edge">
<title>src/app/app.component.spec.ts&#45;&gt;src/app/app.component.ts</title>
<path fill="none" stroke="#000000" stroke-width="2" stroke-opacity="0.200000" d="M214.15,-293.79C225.86,-293.79 238.19,-293.79 249.82,-293.79"/>
<polygon fill="#000000" fill-opacity="0.200000" stroke="#000000" stroke-width="2" stroke-opacity="0.200000" points="249.56,-295.89 255.56,-293.79 249.56,-291.69 249.56,-295.89"/>
</g>
<!-- src/app/app.module.ts -->
<g id="node11" class="node">
<title>src/app/app.module.ts</title>
<g id="a_node11"><a xlink:href="src/app/app.module.ts" xlink:title="app.module.ts">
<path fill="#ddfeff" stroke="black" d="M189.5,-210.79C189.5,-210.79 125.5,-210.79 125.5,-210.79 122.5,-210.79 119.5,-207.79 119.5,-204.79 119.5,-204.79 119.5,-198.79 119.5,-198.79 119.5,-195.79 122.5,-192.79 125.5,-192.79 125.5,-192.79 189.5,-192.79 189.5,-192.79 192.5,-192.79 195.5,-195.79 195.5,-198.79 195.5,-198.79 195.5,-204.79 195.5,-204.79 195.5,-207.79 192.5,-210.79 189.5,-210.79"/>
<text text-anchor="start" x="127.5" y="-199.59" font-family="Helvetica,sans-Serif" font-size="9.00">app.module.ts</text>
</a>
</g>
</g>
<!-- src/app/app.module.ts&#45;&gt;src/app/app&#45;routing.module.ts -->
<g id="edge6" class="edge">
<title>src/app/app.module.ts&#45;&gt;src/app/app&#45;routing.module.ts</title>
<path fill="none" stroke="#000000" stroke-width="2" stroke-opacity="0.200000" d="M195.84,-196.13C209.93,-193.99 226.36,-191.5 242.07,-189.11"/>
<polygon fill="#000000" fill-opacity="0.200000" stroke="#000000" stroke-width="2" stroke-opacity="0.200000" points="243.09,-190.78 248.71,-187.8 242.46,-186.63 243.09,-190.78"/>
</g>
<!-- src/app/app.module.ts&#45;&gt;src/app/login/login.component.ts -->
<g id="edge8" class="edge">
<title>src/app/app.module.ts&#45;&gt;src/app/login/login.component.ts</title>
<path fill="none" stroke="#000000" stroke-width="2" stroke-opacity="0.200000" d="M195.8,-206.23C206.51,-207.45 218.21,-208.73 229,-209.79 244.87,-211.36 360.89,-210.36 372,-221.79 394.34,-244.77 359.29,-341.34 380,-365.79 390.51,-378.2 406.36,-384.49 422.27,-387.47"/>
<polygon fill="#000000" fill-opacity="0.200000" stroke="#000000" stroke-width="2" stroke-opacity="0.200000" points="422.84,-389.98 429.08,-388.8 423.46,-385.83 422.84,-389.98"/>
</g>
<!-- src/app/app.module.ts&#45;&gt;src/app/manager&#45;workboard/manager&#45;workboard.component.ts -->
<g id="edge9" class="edge">
<title>src/app/app.module.ts&#45;&gt;src/app/manager&#45;workboard/manager&#45;workboard.component.ts</title>
<path fill="none" stroke="#000000" stroke-width="2" stroke-opacity="0.200000" d="M171.75,-192.32C185.36,-183.22 207.53,-170.09 229,-164.79 259.85,-157.19 348.22,-143.72 372,-164.79 394.11,-184.39 357.89,-211.2 380,-230.79 395.8,-244.8 548.96,-232.51 570,-230.79 581.01,-229.9 592.7,-228.4 603.91,-226.7"/>
<polygon fill="#000000" fill-opacity="0.200000" stroke="#000000" stroke-width="2" stroke-opacity="0.200000" points="605.17,-228.3 610.77,-225.29 604.51,-224.16 605.17,-228.3"/>
</g>
<!-- src/app/app.module.ts&#45;&gt;src/app/slick&#45;grid/slick&#45;grid.component.ts -->
<g id="edge11" class="edge">
<title>src/app/app.module.ts&#45;&gt;src/app/slick&#45;grid/slick&#45;grid.component.ts</title>
<path fill="none" stroke="#000000" stroke-width="2" stroke-opacity="0.200000" d="M195.81,-200.92C253.67,-199.94 359.68,-199.85 372,-211.79 388.48,-227.78 364.21,-298.13 380,-314.79 388.82,-324.11 400.85,-329.09 413.45,-331.48"/>
<polygon fill="#000000" fill-opacity="0.200000" stroke="#000000" stroke-width="2" stroke-opacity="0.200000" points="414,-333.97 420.24,-332.74 414.6,-329.81 414,-333.97"/>
</g>
<!-- src/app/app.module.ts&#45;&gt;src/app/app.component.ts -->
<g id="edge7" class="edge">
<title>src/app/app.module.ts&#45;&gt;src/app/app.component.ts</title>
<path fill="none" stroke="#000000" stroke-width="2" stroke-opacity="0.200000" d="M195.91,-206.52C205.36,-209.47 214.62,-214.21 221,-221.79 237.75,-241.71 211.05,-260.95 229,-279.79 234.67,-285.74 242,-289.62 249.85,-292.09"/>
<polygon fill="#000000" fill-opacity="0.200000" stroke="#000000" stroke-width="2" stroke-opacity="0.200000" points="250.18,-294.83 256.51,-294.24 251.2,-290.76 250.18,-294.83"/>
</g>
<!-- src/app/manager&#45;workboard/work.component.ts -->
<g id="node12" class="node">
<title>src/app/manager&#45;workboard/work.component.ts</title>
<g id="a_node12"><a xlink:href="src/app/manager-workboard/work.component.ts" xlink:title="work.component.ts">
<path fill="#ddfeff" stroke="black" d="M520.5,-194.79C520.5,-194.79 437.5,-194.79 437.5,-194.79 434.5,-194.79 431.5,-191.79 431.5,-188.79 431.5,-188.79 431.5,-182.79 431.5,-182.79 431.5,-179.79 434.5,-176.79 437.5,-176.79 437.5,-176.79 520.5,-176.79 520.5,-176.79 523.5,-176.79 526.5,-179.79 526.5,-182.79 526.5,-182.79 526.5,-188.79 526.5,-188.79 526.5,-191.79 523.5,-194.79 520.5,-194.79"/>
<text text-anchor="start" x="439.5" y="-183.59" font-family="Helvetica,sans-Serif" font-size="9.00">work.component.ts</text>
</a>
</g>
</g>
<!-- src/app/app.module.ts&#45;&gt;src/app/manager&#45;workboard/work.component.ts -->
<g id="edge10" class="edge">
<title>src/app/app.module.ts&#45;&gt;src/app/manager&#45;workboard/work.component.ts</title>
<path fill="none" stroke="#000000" stroke-width="2" stroke-opacity="0.200000" d="M167.99,-192.51C180.66,-180.83 204.38,-161.38 229,-153.79 289.74,-135.08 319.05,-118.64 372,-153.79 379.63,-158.86 372.72,-167.23 380,-172.79 392.09,-182.02 407.55,-186.42 422.6,-188.23"/>
<polygon fill="#000000" fill-opacity="0.200000" stroke="#000000" stroke-width="2" stroke-opacity="0.200000" points="422.22,-190.57 428.38,-189.01 422.59,-186.38 422.22,-190.57"/>
</g>
<!-- src/app/top&#45;bar/top&#45;bar.component.ts -->
<g id="node13" class="node">
<title>src/app/top&#45;bar/top&#45;bar.component.ts</title>
<g id="a_node13"><a xlink:href="src/app/top-bar/top-bar.component.ts" xlink:title="top&#45;bar.component.ts">
<path fill="#ddfeff" stroke="black" d="M350.5,-250.79C350.5,-250.79 258.5,-250.79 258.5,-250.79 255.5,-250.79 252.5,-247.79 252.5,-244.79 252.5,-244.79 252.5,-238.79 252.5,-238.79 252.5,-235.79 255.5,-232.79 258.5,-232.79 258.5,-232.79 350.5,-232.79 350.5,-232.79 353.5,-232.79 356.5,-235.79 356.5,-238.79 356.5,-238.79 356.5,-244.79 356.5,-244.79 356.5,-247.79 353.5,-250.79 350.5,-250.79"/>
<text text-anchor="start" x="260.5" y="-239.59" font-family="Helvetica,sans-Serif" font-size="9.00">top&#45;bar.component.ts</text>
</a>
</g>
</g>
<!-- src/app/app.module.ts&#45;&gt;src/app/top&#45;bar/top&#45;bar.component.ts -->
<g id="edge12" class="edge">
<title>src/app/app.module.ts&#45;&gt;src/app/top&#45;bar/top&#45;bar.component.ts</title>
<path fill="none" stroke="#000000" stroke-width="2" stroke-opacity="0.200000" d="M195.91,-211.02C204.44,-213.86 213.26,-217.42 221,-221.79 225.11,-224.12 224.74,-226.76 229,-228.79 233.63,-231.01 238.58,-232.85 243.65,-234.38"/>
<polygon fill="#000000" fill-opacity="0.200000" stroke="#000000" stroke-width="2" stroke-opacity="0.200000" points="243.91,-237.15 250.25,-236.67 245,-233.09 243.91,-237.15"/>
</g>
<!-- src/app/manager&#45;workboard/work.component.ts&#45;&gt;classes -->
<g id="edge19" class="edge">
<title>src/app/manager&#45;workboard/work.component.ts&#45;&gt;classes</title>
<path fill="none" stroke="#000000" stroke-width="2" stroke-opacity="0.200000" d="M526.92,-189.96C542.67,-188.79 559,-184.33 570,-172.79 590.8,-150.98 560.69,-58.06 583,-37.79 643.2,16.89 698.46,7.52 766,-37.79 787.56,-52.26 795.46,-83.09 798.34,-102.83"/>
<polygon fill="#000000" fill-opacity="0.200000" stroke="#000000" stroke-width="2" stroke-opacity="0.200000" points="796.59,-102.81 799.4,-108.51 800.76,-102.3 796.59,-102.81"/>
</g>
<!-- src/app/login/login.component.spec.ts -->
<g id="node14" class="node">
<title>src/app/login/login.component.spec.ts</title>
<g id="a_node14"><a xlink:href="src/app/login/login.component.spec.ts" xlink:title="login.component.spec.ts">
<path fill="#ddfeff" stroke="black" d="M357.5,-396.79C357.5,-396.79 251.5,-396.79 251.5,-396.79 248.5,-396.79 245.5,-393.79 245.5,-390.79 245.5,-390.79 245.5,-384.79 245.5,-384.79 245.5,-381.79 248.5,-378.79 251.5,-378.79 251.5,-378.79 357.5,-378.79 357.5,-378.79 360.5,-378.79 363.5,-381.79 363.5,-384.79 363.5,-384.79 363.5,-390.79 363.5,-390.79 363.5,-393.79 360.5,-396.79 357.5,-396.79"/>
<text text-anchor="start" x="253.5" y="-385.59" font-family="Helvetica,sans-Serif" font-size="9.00">login.component.spec.ts</text>
</a>
</g>
</g>
<!-- src/app/login/login.component.spec.ts&#45;&gt;src/app/login/login.component.ts -->
<g id="edge14" class="edge">
<title>src/app/login/login.component.spec.ts&#45;&gt;src/app/login/login.component.ts</title>
<path fill="none" stroke="#000000" stroke-width="2" stroke-opacity="0.200000" d="M363.9,-387.79C382.72,-387.79 403.51,-387.79 422.14,-387.79"/>
<polygon fill="#000000" fill-opacity="0.200000" stroke="#000000" stroke-width="2" stroke-opacity="0.200000" points="422.09,-389.89 428.09,-387.79 422.09,-385.69 422.09,-389.89"/>
</g>
<!-- src/app/manager&#45;workboard/manager&#45;workboard.component.spec.ts -->
<g id="node15" class="node">
<title>src/app/manager&#45;workboard/manager&#45;workboard.component.spec.ts</title>
<g id="a_node15"><a xlink:href="src/app/manager-workboard/manager-workboard.component.spec.ts" xlink:title="manager&#45;workboard.component.spec.ts">
<path fill="#ddfeff" stroke="black" d="M564,-224.79C564,-224.79 394,-224.79 394,-224.79 391,-224.79 388,-221.79 388,-218.79 388,-218.79 388,-212.79 388,-212.79 388,-209.79 391,-206.79 394,-206.79 394,-206.79 564,-206.79 564,-206.79 567,-206.79 570,-209.79 570,-212.79 570,-212.79 570,-218.79 570,-218.79 570,-221.79 567,-224.79 564,-224.79"/>
<text text-anchor="start" x="396" y="-213.59" font-family="Helvetica,sans-Serif" font-size="9.00">manager&#45;workboard.component.spec.ts</text>
</a>
</g>
</g>
<!-- src/app/manager&#45;workboard/manager&#45;workboard.component.spec.ts&#45;&gt;src/app/manager&#45;workboard/manager&#45;workboard.component.ts -->
<g id="edge17" class="edge">
<title>src/app/manager&#45;workboard/manager&#45;workboard.component.spec.ts&#45;&gt;src/app/manager&#45;workboard/manager&#45;workboard.component.ts</title>
<path fill="none" stroke="#000000" stroke-width="2" stroke-opacity="0.200000" d="M570.48,-215.79C571.63,-215.79 572.78,-215.79 573.93,-215.79"/>
<polygon fill="#000000" fill-opacity="0.200000" stroke="#000000" stroke-width="2" stroke-opacity="0.200000" points="573.71,-217.89 579.71,-215.79 573.71,-213.69 573.71,-217.89"/>
</g>
<!-- src/app/slick&#45;grid/slick&#45;grid.component.spec.ts -->
<g id="node16" class="node">
<title>src/app/slick&#45;grid/slick&#45;grid.component.spec.ts</title>
<g id="a_node16"><a xlink:href="src/app/slick-grid/slick-grid.component.spec.ts" xlink:title="slick&#45;grid.component.spec.ts">
<path fill="#ddfeff" stroke="black" d="M366,-336.79C366,-336.79 243,-336.79 243,-336.79 240,-336.79 237,-333.79 237,-330.79 237,-330.79 237,-324.79 237,-324.79 237,-321.79 240,-318.79 243,-318.79 243,-318.79 366,-318.79 366,-318.79 369,-318.79 372,-321.79 372,-324.79 372,-324.79 372,-330.79 372,-330.79 372,-333.79 369,-336.79 366,-336.79"/>
<text text-anchor="start" x="245" y="-325.59" font-family="Helvetica,sans-Serif" font-size="9.00">slick&#45;grid.component.spec.ts</text>
</a>
</g>
</g>
<!-- src/app/slick&#45;grid/slick&#45;grid.component.spec.ts&#45;&gt;src/app/slick&#45;grid/slick&#45;grid.component.ts -->
<g id="edge20" class="edge">
<title>src/app/slick&#45;grid/slick&#45;grid.component.spec.ts&#45;&gt;src/app/slick&#45;grid/slick&#45;grid.component.ts</title>
<path fill="none" stroke="#000000" stroke-width="2" stroke-opacity="0.200000" d="M372.19,-327.79C385.73,-327.79 399.94,-327.79 413.39,-327.79"/>
<polygon fill="#000000" fill-opacity="0.200000" stroke="#000000" stroke-width="2" stroke-opacity="0.200000" points="413.12,-329.89 419.12,-327.79 413.12,-325.69 413.12,-329.89"/>
</g>
<!-- src/app/top&#45;bar/top&#45;bar.component.spec.ts -->
<g id="node17" class="node">
<title>src/app/top&#45;bar/top&#45;bar.component.spec.ts</title>
<g id="a_node17"><a xlink:href="src/app/top-bar/top-bar.component.spec.ts" xlink:title="top&#45;bar.component.spec.ts">
<path fill="#ddfeff" stroke="black" d="M215,-250.79C215,-250.79 100,-250.79 100,-250.79 97,-250.79 94,-247.79 94,-244.79 94,-244.79 94,-238.79 94,-238.79 94,-235.79 97,-232.79 100,-232.79 100,-232.79 215,-232.79 215,-232.79 218,-232.79 221,-235.79 221,-238.79 221,-238.79 221,-244.79 221,-244.79 221,-247.79 218,-250.79 215,-250.79"/>
<text text-anchor="start" x="102" y="-239.59" font-family="Helvetica,sans-Serif" font-size="9.00">top&#45;bar.component.spec.ts</text>
</a>
</g>
</g>
<!-- src/app/top&#45;bar/top&#45;bar.component.spec.ts&#45;&gt;src/app/top&#45;bar/top&#45;bar.component.ts -->
<g id="edge21" class="edge">
<title>src/app/top&#45;bar/top&#45;bar.component.spec.ts&#45;&gt;src/app/top&#45;bar/top&#45;bar.component.ts</title>
<path fill="none" stroke="#000000" stroke-width="2" stroke-opacity="0.200000" d="M221.26,-241.79C228.74,-241.79 236.36,-241.79 243.8,-241.79"/>
<polygon fill="#000000" fill-opacity="0.200000" stroke="#000000" stroke-width="2" stroke-opacity="0.200000" points="243.42,-243.89 249.42,-241.79 243.42,-239.69 243.42,-243.89"/>
</g>
<!-- src/main.ts -->
<g id="node18" class="node">
<title>src/main.ts</title>
<g id="a_node18"><a xlink:href="src/main.ts" xlink:title="main.ts">
<path fill="#ddfeff" stroke="black" d="M64,-210.79C64,-210.79 22,-210.79 22,-210.79 19,-210.79 16,-207.79 16,-204.79 16,-204.79 16,-198.79 16,-198.79 16,-195.79 19,-192.79 22,-192.79 22,-192.79 64,-192.79 64,-192.79 67,-192.79 70,-195.79 70,-198.79 70,-198.79 70,-204.79 70,-204.79 70,-207.79 67,-210.79 64,-210.79"/>
<text text-anchor="start" x="27.5" y="-199.59" font-family="Helvetica,sans-Serif" font-size="9.00">main.ts</text>
</a>
</g>
</g>
<!-- src/main.ts&#45;&gt;src/app/app.module.ts -->
<g id="edge22" class="edge">
<title>src/main.ts&#45;&gt;src/app/app.module.ts</title>
<path fill="none" stroke="#000000" stroke-width="2" stroke-opacity="0.200000" d="M70.38,-201.79C82.31,-201.79 96.77,-201.79 110.41,-201.79"/>
<polygon fill="#000000" fill-opacity="0.200000" stroke="#000000" stroke-width="2" stroke-opacity="0.200000" points="110.21,-203.89 116.21,-201.79 110.21,-199.69 110.21,-203.89"/>
</g>
</g>
</svg>
